<svg fill="#000" height="512" viewBox="0 0 64 64" width="512" xmlns="http://www.w3.org/2000/svg"><g id="Contacts"><circle cx="41" cy="27" r="4"/><path d="m60 7a3 3 0 0 0 -3-3h-35v56h35a3 3 0 0 0 3-3zm-19 40a15 15 0 1 1 15-15 15.017 15.017 0 0 1 -15 15z"/><path d="m41 19a12.991 12.991 0 0 0 -10 21.3v-2.3a7.01 7.01 0 0 1 5.66-6.868 6 6 0 1 1 8.68 0 7.01 7.01 0 0 1 5.66 6.868v2.3a12.991 12.991 0 0 0 -10-21.3z"/><path d="m44 33h-6a5.006 5.006 0 0 0 -5 5v4.226a12.923 12.923 0 0 0 16 0v-4.226a5.006 5.006 0 0 0 -5-5z"/><path d="m14 26a2 2 0 0 0 -2-2h-6a2 2 0 0 0 0 4h6a2 2 0 0 0 2-2z"/><path d="m10 7v3h2a4 4 0 0 1 0 8h-2v4h2a4 4 0 0 1 0 8h-2v5h2a4 4 0 0 1 0 8h-2v4h2a4 4 0 0 1 0 8h-2v2a3 3 0 0 0 3 3h7v-56h-7a3 3 0 0 0 -3 3z"/><path d="m6 16h6a2 2 0 0 0 0-4h-6a2 2 0 0 0 0 4z"/><path d="m14 39a2 2 0 0 0 -2-2h-6a2 2 0 0 0 0 4h6a2 2 0 0 0 2-2z"/><path d="m14 51a2 2 0 0 0 -2-2h-6a2 2 0 0 0 0 4h6a2 2 0 0 0 2-2z"/></g></svg>