<?xml version="1.0" encoding="UTF-8"?><svg xmlns="http://www.w3.org/2000/svg" xmlns:xlink="http://www.w3.org/1999/xlink" version="1.1" id="Layer_1" x="0px" y="0px" width="92px" height="92px" viewBox="0 0 92 92" xml:space="preserve"><path id="XMLID_1532_" d="M89 13v66c0 2.2-1.8 4-4 4H32.9c-2.2 0-3.9-1.8-3.9-4V60.7c0-2.2 1.8-4 4-4s4 1.8 4 4V75h44V17H37v14.3c0 2.2-1.8 4-4 4s-4-1.8-4-4V13c0-2.2 1.7-4 3.9-4H85c2.2 0 4 1.8 4 4zM46.5 58.9c-1.6 1.6-1.5 4.1 0 5.7.8.8 1.8 1.2 2.8 1.2 1 0 2.1-.4 2.8-1.2l15.7-15.8c1.5-1.6 1.5-4.1 0-5.6l-15.6-16c-1.6-1.6-4.1-1.6-5.7 0-1.6 1.6-1.6 4.1 0 5.7l8.9 9L7 42c-2.2 0-4 1.8-4 4s1.8 4 4 4l48.4-.1-8.9 9z"/><metadata><rdf:RDF xmlns:rdf="http://www.w3.org/1999/02/22-rdf-syntax-ns#" xmlns:rdfs="http://www.w3.org/2000/01/rdf-schema#" xmlns:dc="http://purl.org/dc/elements/1.1/"><rdf:Description about="https://iconscout.com/legal#licenses" dc:title="enter" dc:description="enter" dc:publisher="Iconscout" dc:date="2017-09-24" dc:format="image/svg+xml" dc:language="en"><dc:creator><rdf:Bag><rdf:li>Amit Jakhu</rdf:li></rdf:Bag></dc:creator></rdf:Description></rdf:RDF></metadata></svg>