<?xml version="1.0"?>
<svg xmlns="http://www.w3.org/2000/svg" viewBox="0 0 32 32">
    <path style="text-indent:0;text-align:start;line-height:normal;text-transform:none;block-progression:tb;-inkscape-font-specification:Bitstream Vera Sans" d="M 15 3 L 15 5.0625 C 9.732372 5.5397858 5.53968 9.7341615 5.0625 15 L 3 15 L 3 17 L 5.0625 17 C 5.5397801 22.267565 9.7324351 26.46022 15 26.9375 L 15 29 L 17 29 L 17 26.9375 C 22.267565 26.46022 26.46022 22.267565 26.9375 17 L 29 17 L 29 15 L 26.9375 15 C 26.46032 9.7341615 22.267628 5.5397858 17 5.0625 L 17 3 L 15 3 z M 15 7.03125 L 15 9 L 17 9 L 17 7.03125 C 21.190067 7.484321 24.482333 10.808453 24.9375 15 L 23 15 L 23 17 L 24.96875 17 C 24.515365 21.192969 21.192969 24.515365 17 24.96875 L 17 23 L 15 23 L 15 24.96875 C 10.807031 24.515365 7.4846347 21.192969 7.03125 17 L 9 17 L 9 15 L 7.0625 15 C 7.5176669 10.808453 10.809933 7.484321 15 7.03125 z M 16 12 C 13.790861 12 12 13.790861 12 16 C 12 18.209139 13.790861 20 16 20 C 18.209139 20 20 18.209139 20 16 C 20 13.790861 18.209139 12 16 12 z"/>
</svg>
