<?xml version="1.0" encoding="utf-8"?>
<!-- Svg Vector Icons : http://www.onlinewebfonts.com/icon -->
<!DOCTYPE svg PUBLIC "-//W3C//DTD SVG 1.1//EN" "http://www.w3.org/Graphics/SVG/1.1/DTD/svg11.dtd">
<svg version="1.1" xmlns="http://www.w3.org/2000/svg" xmlns:xlink="http://www.w3.org/1999/xlink" x="0px" y="0px" viewBox="0 0 1000 1000" enable-background="new 0 0 1000 1000" xml:space="preserve">
<metadata> Svg Vector Icons : http://www.onlinewebfonts.com/icon </metadata>
<g><g><g><g><path d="M311.7,315.5c23.9-18.6,37.1-27.8,39.8-27.8l65.6-4l12.9,11.9c8.6,8,18.9,14.9,30.8,20.9c11.9,6,21.2,6.3,27.8,1c9.3-5.3,15.3-12.6,17.9-21.9c-2.6-6.6-13.3-15.3-31.8-25.9c-5.3-4-11.9-9.9-19.9-17.9c-8-8-15.9-13.3-23.9-15.9c-9.3-1.3-22.2-2.3-38.8-3c-16.6-0.7-26.9-1-30.8-1c-2.7-1.3-15.3,1.7-37.8,9c-22.5,7.3-41.8,14.9-57.7,22.9c-9.3,5.3-9.3,4.6,0-2c35.8-26.5,57-44.4,63.7-53.7c19.9-5.3,33.8-9.9,41.8-13.9c8-4,15.9-7.3,23.9-9.9c25.2-4,39.1-6.6,41.8-8c9.3-2.7,15.9-8.6,19.9-17.9c4-9.3,2-17.2-6-23.9c-5.3-2.7-10.6-3.6-15.9-3c-5.3,0.7-13.9,2-25.9,4c-11.9,2-21.2,3-27.8,3c-17.2,1.3-44.4,12.6-81.6,33.8c-13.3,6.6-28.2,16.6-44.8,29.8c-16.6,13.3-26.2,20.6-28.8,21.9c-17.2,13.3,0-11.9,51.7-75.6c2.7-2.7,5.6-6.3,9-10.9c3.3-4.7,6.3-8.3,9-10.9c4-6.6,5.6-13.3,5-19.9c-0.7-6.6-3-12.3-7-16.9c-4-4.7-7.3-6.3-9.9-5c-2.7,1.3-7.3,6.3-13.9,14.9c-6.6,8.6-11.9,14.3-15.9,16.9c-1.3,0-3.6,2.3-7,7s-7.6,10.3-12.9,16.9c-5.3,6.6-9.9,11.9-13.9,15.9c-1.3,2.7-5.3,7-11.9,12.9c-6.6,6-11.9,11.6-15.9,16.9c-5.3,8-11.3,18.2-17.9,30.8c-6.6,12.6-11.9,21.5-15.9,26.9c-2.7,2.7-6.6,7-11.9,12.9c-5.3,6-9.3,11.6-11.9,16.9c-13.3,26.5-25.2,57.7-35.8,93.5s-23.2,63.7-37.8,83.5c-5.3,9.3-21.2,20.6-47.7,33.8c-10.6,88.8,4,160.5,43.8,214.8c29.2-17.2,52.7-28.5,70.6-33.8c17.9-5.3,39.5-8,64.6-8c6.6,1.3,15.3,3.3,25.9,6c10.6,2.6,19.2,4,25.9,4c1.3-1.3,17.2-6,47.7-13.9c9.3-4,21.5-8.6,36.8-13.9c15.3-5.3,27.5-9.9,36.8-13.9c5.3-1.3,13.6-3.3,24.9-6c11.3-2.7,20.9-5.3,28.8-8c2.7-1.3,6-2,9.9-2c2.7-1.3,4.6-3,6-5c1.3-2,3.3-4.3,6-7c5.3-6.6,9.9-16.6,13.9-29.8c4-13.3,7.3-23.2,9.9-29.8c9.3-18.6,14.3-31.2,14.9-37.8c0.7-6.6-1.7-10.6-7-11.9c5.3-17.2,7.3-35.1,6-53.7c0-5.3,0.3-10.3,1-14.9c0.7-4.6,0-9.3-2-13.9c-2-4.6-5.6-8.3-10.9-10.9c-51.7-41.1-80.2-61.7-85.5-61.7c-53,1.3-87.5,7.3-103.4,17.9c-3.2,1.6-5.1,2.7-5.9,3.3c0,0.3,0,0.5,0,0.7c-0.5,0-0.5-0.2,0-0.7c0.2-1.6,0.8-4.7,1.9-9.3C275.2,344,287.8,334.1,311.7,315.5z M272.9,442.8c0.7-1.3,1.7-3,3-5c1.3-2,3-3.6,5-5c2-1.3,4.3-2.7,7-4c6.6-5.3,16.2-9.6,28.8-12.9c12.6-3.3,28.8-10.3,48.7-20.9l2,2c1.3,1.3,3.6,3.3,7,6c3.3,2.7,7.3,5.6,11.9,9c4.6,3.3,9.9,6.3,15.9,9c6,2.6,12.3,5.3,18.9,8l3,10.9c2,7.3,5.3,15.9,9.9,25.9s9.6,17.6,14.9,22.9c-13.3,9.3-23.5,19.2-30.8,29.8c-7.3,10.6-11.9,18.6-13.9,23.9c-2,5.3-3.6,8-5,8c-34.5-5.3-64.3-3.3-89.5,6c-6.6-13.3-15.3-24.5-25.9-33.8c-10.6-9.3-17.9-16.6-21.9-21.9c-4-5.3-4.6-12.6-2-21.9c1.3-2.7,2.7-6.6,4-11.9c1.3-5.3,2.3-8.6,3-9.9c0.7-1.3,1.7-3.6,3-7C271.3,446.5,272.3,444.1,272.9,442.8z"/><path d="M988,432.9c-1.3-11.9-3-23.2-5-33.8c-2-10.6-4.3-20.2-7-28.8c-2.6-8.6-5.6-16.9-9-24.9c-3.3-8-6.3-14.6-9-19.9c-2.6-5.3-5.3-9.6-8-12.9c-2.6-3.3-4.6-6-6-8l-2-3c-27.8,15.9-50.7,26.9-68.6,32.8c-17.9,6-40.1,8.3-66.6,7c-5.3,0-13.3-1.3-23.9-4c-10.6-2.7-19.9-4-27.8-4c-4,0-19.9,5.3-47.7,15.9c-9.3,2.7-21.5,6.6-36.8,11.9c-15.3,5.3-27.5,9.9-36.8,13.9c-5.3,1.3-13.6,3-24.9,5c-11.3,2-20.2,4.3-26.9,7c-2.6,1.3-5.6,2.7-9,4c-3.3,1.3-6,3-8,5s-3.6,4.3-5,7c-5.3,6.6-9.9,16.2-13.9,28.8c-4,12.6-8,22.9-11.9,30.8c-9.3,18.6-13.9,31.2-13.9,37.8c0,6.6,2.7,10.6,8,11.9c-6.6,17.2-9.3,35.1-8,53.7c1.3,5.3,1.7,10.3,1,14.9c-0.7,4.6,0,9,2,12.9c2,4,5.6,8,10.9,11.9c53,39.8,81.6,60.3,85.5,61.7c54.4-2.6,88.8-9.3,103.4-19.9l6-2c1.3-1.3,0.7,2-2,9.9c-1.3,1.3-13.9,10.9-37.8,28.8c-23.9,17.9-37.8,26.9-41.8,26.9l-63.7,6l-13.9-12.9c-9.3-8.6-19.6-15.6-30.8-20.9c-11.3-5.3-20.9-5.3-28.8,0c-8,5.3-13.9,12.6-17.9,21.9c2.7,5.3,13.9,14.6,33.8,27.8c5.3,2.7,11.9,8,19.9,15.9c8,8,15.9,13.3,23.9,15.9c9.3,1.3,22.2,2,38.8,2c16.6,0,26.2,0.7,28.8,2c4,0,17.2-3.6,39.8-10.9c22.5-7.3,41.8-14.9,57.7-22.9c9.3-5.3,9.3-4,0,4c-35.8,26.5-57,43.8-63.6,51.7c-19.9,6.6-33.8,11.9-41.8,15.9c-8,4-15.9,6.6-23.9,8c-25.2,5.3-39.1,8.6-41.8,9.9c-9.3,2.7-15.9,8.3-19.9,16.9c-4,8.6-2.6,16.2,4,22.9c6.6,2.7,12.3,3.6,16.9,3c4.6-0.7,12.9-2,24.9-4c11.9-2,21.9-3,29.8-3c14.6,0,41.8-10.6,81.5-31.8c9.3-5.3,18.2-11.3,26.9-17.9c8.6-6.6,17.2-13.6,25.9-20.9c8.6-7.3,14.9-12.3,18.9-14.9c18.6-11.9,1.3,13.9-51.7,77.6c-1.3,2.7-3.7,6-7,9.9c-3.3,4-7,8-10.9,11.9c-4,6.6-5.3,13.3-4,19.9c1.3,6.6,3.6,12.3,7,16.9c3.3,4.7,7,5.6,10.9,3c2.7-1.3,7-6,12.9-13.9c6-8,10.9-13.3,14.9-15.9c1.3-1.3,3.6-4,7-8c3.3-4,7.6-9.3,12.9-15.9c5.3-6.6,9.9-11.9,13.9-15.9l14.9-14.9c6-6,10.3-10.9,12.9-14.9c6.6-8,13.3-18.2,19.9-30.8c6.6-12.6,11.9-22.2,15.9-28.8c1.3-1.3,4.6-5,9.9-10.9c5.3-6,9.9-11.6,13.9-16.9c13.3-26.5,24.9-58,34.8-94.5c9.9-36.5,22.2-64.6,36.8-84.5c6.6-8,22.5-18.6,47.7-31.8c2.7-14.6,4-29.2,4-43.8S989.3,444.8,988,432.9z M741.4,520.4c-6.6,19.9-10.9,31.8-12.9,35.8c-2,4-7,9.3-14.9,15.9c-8,5.3-18.2,9.6-30.8,12.9c-12.6,3.3-28.2,10.3-46.7,20.9l-6-6c-4-4-10.9-9-20.9-14.9c-9.9-6-19.6-10.3-28.8-12.9v-2c0-1.3-0.3-2.6-1-4c-0.7-1.3-1.3-3.3-2-6c-0.7-2.6-1.7-5.3-3-8c-1.3-2.6-2.3-5.3-3-8c-0.7-2.7-1.7-5.6-3-9c-1.3-3.3-3-6.3-5-9l-6-8c-2-2.6-3.6-4.6-5-6c11.9-9.3,21.9-19.2,29.8-29.8c8-10.6,12.9-18.6,14.9-23.9c2-5.3,3.6-8,5-8c35.8,4,65,1.3,87.5-8c8,14.6,16.9,26.5,26.8,35.8c9.9,9.3,17.2,16.6,21.9,21.9C743,505.8,744,512.4,741.4,520.4z"/></g></g></g><g></g><g></g><g></g><g></g><g></g><g></g><g></g><g></g><g></g><g></g><g></g><g></g><g></g><g></g><g></g></g>
</svg>